<mxfile host="app.diagrams.net" modified="2024-01-19T19:35:55.110Z" agent="Mozilla/5.0 (Windows NT 10.0; Win64; x64) AppleWebKit/537.36 (KHTML, like Gecko) Chrome/120.0.0.0 Safari/537.36 OPR/106.0.0.0" etag="AWsn4frwBeut9dj74Apt" version="22.1.21" type="github">
  <diagram id="C5RBs43oDa-KdzZeNtuy" name="Page-1">
    <mxGraphModel dx="1538" dy="399" grid="1" gridSize="10" guides="1" tooltips="1" connect="1" arrows="1" fold="1" page="1" pageScale="1" pageWidth="827" pageHeight="1169" math="0" shadow="0">
      <root>
        <mxCell id="WIyWlLk6GJQsqaUBKTNV-0" />
        <mxCell id="WIyWlLk6GJQsqaUBKTNV-1" parent="WIyWlLk6GJQsqaUBKTNV-0" />
        <mxCell id="wge61TRYSxLGjLd2PRoZ-2" value="" style="edgeStyle=orthogonalEdgeStyle;rounded=0;orthogonalLoop=1;jettySize=auto;html=1;" edge="1" parent="WIyWlLk6GJQsqaUBKTNV-1" source="wge61TRYSxLGjLd2PRoZ-0" target="wge61TRYSxLGjLd2PRoZ-1">
          <mxGeometry relative="1" as="geometry" />
        </mxCell>
        <mxCell id="wge61TRYSxLGjLd2PRoZ-0" value="User Visits My Digital Resume" style="rounded=1;whiteSpace=wrap;html=1;" vertex="1" parent="WIyWlLk6GJQsqaUBKTNV-1">
          <mxGeometry x="20" y="10" width="120" height="60" as="geometry" />
        </mxCell>
        <mxCell id="wge61TRYSxLGjLd2PRoZ-4" value="" style="edgeStyle=orthogonalEdgeStyle;rounded=0;orthogonalLoop=1;jettySize=auto;html=1;" edge="1" parent="WIyWlLk6GJQsqaUBKTNV-1" source="wge61TRYSxLGjLd2PRoZ-1" target="wge61TRYSxLGjLd2PRoZ-3">
          <mxGeometry relative="1" as="geometry" />
        </mxCell>
        <mxCell id="wge61TRYSxLGjLd2PRoZ-5" value="No" style="edgeLabel;html=1;align=center;verticalAlign=middle;resizable=0;points=[];" vertex="1" connectable="0" parent="wge61TRYSxLGjLd2PRoZ-4">
          <mxGeometry x="-0.0609" y="-1" relative="1" as="geometry">
            <mxPoint as="offset" />
          </mxGeometry>
        </mxCell>
        <mxCell id="wge61TRYSxLGjLd2PRoZ-8" value="" style="edgeStyle=orthogonalEdgeStyle;rounded=0;orthogonalLoop=1;jettySize=auto;html=1;" edge="1" parent="WIyWlLk6GJQsqaUBKTNV-1" source="wge61TRYSxLGjLd2PRoZ-1" target="wge61TRYSxLGjLd2PRoZ-7">
          <mxGeometry relative="1" as="geometry" />
        </mxCell>
        <mxCell id="wge61TRYSxLGjLd2PRoZ-9" value="Yes" style="edgeLabel;html=1;align=center;verticalAlign=middle;resizable=0;points=[];" vertex="1" connectable="0" parent="wge61TRYSxLGjLd2PRoZ-8">
          <mxGeometry x="-0.0555" y="2" relative="1" as="geometry">
            <mxPoint as="offset" />
          </mxGeometry>
        </mxCell>
        <mxCell id="wge61TRYSxLGjLd2PRoZ-1" value="Reads Content and decides if it likes it or not" style="rhombus;whiteSpace=wrap;html=1;" vertex="1" parent="WIyWlLk6GJQsqaUBKTNV-1">
          <mxGeometry x="-15" y="170" width="190" height="70" as="geometry" />
        </mxCell>
        <mxCell id="wge61TRYSxLGjLd2PRoZ-3" value="Either share feedback or just ignore" style="rounded=1;whiteSpace=wrap;html=1;" vertex="1" parent="WIyWlLk6GJQsqaUBKTNV-1">
          <mxGeometry x="290" y="175" width="120" height="60" as="geometry" />
        </mxCell>
        <mxCell id="wge61TRYSxLGjLd2PRoZ-7" value="Hires Me and share feedback and contact details" style="whiteSpace=wrap;html=1;" vertex="1" parent="WIyWlLk6GJQsqaUBKTNV-1">
          <mxGeometry x="20" y="325" width="120" height="60" as="geometry" />
        </mxCell>
      </root>
    </mxGraphModel>
  </diagram>
</mxfile>
